<svg xmlns="http://www.w3.org/2000/svg" width="259.074" height="52.298"><g data-name="Group 2" fill="#295a28"><path data-name="Path 1" d="M205.566 23.987a3.356 3.356 0 00.55-1.3c.109-1.059.232-2.1-.824-2.867-.97-.583-2.084-.719-3.054-1.371a3.189 3.189 0 01-1.255-2.073c-.089-.354-.161-.707-.253-1.035a92.104 92.104 0 01-.483-2.939c-.027-.185-.276-2.078-.3-2.282-.222-1.651-.571-4.359-.653-5.232l.09-.118c.04-.031.07.009.113.02l.814.878c.133.1.233.347.439.3.121-.064.084-.2.092-.286a20.52 20.52 0 00-1.565-3.461c-.36-.56-.585-1.2-.986-1.758l-.041.017a26.468 26.468 0 00-.639 1.843c-.02.113-.11.217-.02.308a3.328 3.328 0 01.4 1.52c.205 2.189.731 6.578.743 6.573.018.146.388 2.842.456 3.422.121.959.276 1.829.508 2.87a.93.93 0 00.021.07l-.027.041a2.44 2.44 0 00-.62.392 8.94 8.94 0 00-3.148 5.141 4.181 4.181 0 00-.1.892 1.253 1.253 0 00.125.827l-.041.042a9.317 9.317 0 01-3.353.714h-.015a2.829 2.829 0 01-.78-.145 2.3 2.3 0 01-1.538-1.684 2.442 2.442 0 010-1.324c.068-.248-.287-.313-.872.542-.221.323-.4.641-.739 1.074a5.6 5.6 0 01-2.317 1.716 3.857 3.857 0 01-.4.152 5.78 5.78 0 01-1.574.2 2.858 2.858 0 01-.782-.145 2.3 2.3 0 01-1.541-1.684 2.419 2.419 0 010-1.323c.068-.248-.287-.313-.874.542-.222.323-.4.641-.741 1.074a5.6 5.6 0 01-2.317 1.716c-.128.057-.26.106-.4.151a6.228 6.228 0 01-1.59.233 4.681 4.681 0 01-3.6-2.188c-.386-.464-.628-1.336-1.338-1.348a4.067 4.067 0 00-2.394 1.223 9.483 9.483 0 00-2.186 3.027c-.626 1.253-1.186 3.4-2.406 4.23a1.512 1.512 0 01-1.294.045 5 5 0 01-2.206-3.5 5.508 5.508 0 01-.118-.847c.076-.325.137-.653.186-.982h-.042c.854-2.795.43-5.654.111-8.4-.164-1.369-.4-2.734-.569-4.032-.255-1.683.035-.021-.227-1.607-.071-.414-.157-.868-.212-1.255-.1-.6-.2-1.211-.3-1.825-.143-.832-.341-1.889-.428-2.683a.942.942 0 01-.01-.557c.026-.03.056 0 .1-.007.346.367.695.775 1.038 1.115a.085.085 0 00.138-.024 1.719 1.719 0 00-.131-.688 90.981 90.981 0 00-2.075-5.045.101.101 0 00-.2-.029c-.288.675-.406 1.395-.683 2.041-.093.271.251.4.268.665.236 1.392.378 2.86.588 4.3q.067.484.14.981c.113.758.226 1.516.335 2.276.356 2.541.286 1.854.65 4.311.324 2.069.64 4.237.85 6.286a35.08 35.08 0 01.207 4.179h-.112v2.24l.029-.082a10.679 10.679 0 00.59 2.387 5.309 5.309 0 001.451 2.138 1.788 1.788 0 001.48.48 2.5 2.5 0 001.532-1.161c.483-.79 1.017-2.292 1.415-3.15a7.112 7.112 0 013.2-3.718c.387-.134.924-.355 1.281.027a8.773 8.773 0 002.794 2.971 5.057 5.057 0 002.152.424 3.829 3.829 0 001.227-.259 5.817 5.817 0 002.468-1.843c.258-.312.457-.6.663-.882a9.635 9.635 0 01.68-1.047 5.69 5.69 0 00.218 1.153 3.354 3.354 0 001.316 1.838 2.935 2.935 0 001.67.49 3.727 3.727 0 001.215-.236 5.811 5.811 0 002.468-1.843c.258-.312.457-.6.662-.882a9.641 9.641 0 01.679-1.047 5.731 5.731 0 00.217 1.153 3.356 3.356 0 001.314 1.838 2.949 2.949 0 001.675.489 9.5 9.5 0 003.571-.974c.443-.16.842-.4 1.285-.548a6.971 6.971 0 001.272.37c.111 0 .237.066.335.05a6.529 6.529 0 001.474.005 10.2 10.2 0 003.436-.986 3.94 3.94 0 001.649-1.292m-7.212-.319c-.209.017-.36.131-.571-.019a2.911 2.911 0 01-1.149-1.443c-.045-.208.132-.448.212-.643a6.064 6.064 0 012.08-2.272c.414-.229.912-.348 1.254.106a6.332 6.332 0 01.754 1.977 1.029 1.029 0 01-.139.879 7.682 7.682 0 01-2.44 1.415m2.956.455c-.25.018-.639.079-.875.084l-.042-.028a5.7 5.7 0 001.332-2.928 3.7 3.7 0 01.033-.557c.027-.043.055-.029.1-.044.954.486 1.973.693 2.912 1.207.281.176.62.449.666.768a4.754 4.754 0 01-1.38.745 12.915 12.915 0 01-2.743.752"/><path data-name="Path 2" d="M205.671 7.511q.059.485.123.983.151 1.14.3 2.282c.313 2.547.759 5.226 1.083 7.689.289 2.075.569 4.247.745 6.3a35.508 35.508 0 01.116 4.9l.043.04c.127.021.12-.1.186-.177 1.156-2.957.745-6.029.453-8.967-.141-1.372-.352-2.74-.5-4.041a474.555 474.555 0 00-.7-4.978c-.064-.415-.144-.87-.191-1.258l-.268-1.83c-.129-.834-.311-1.894-.384-2.69a.944.944 0 010-.557c.026-.029.056 0 .1-.005.34.373.682.787 1.02 1.131a.086.086 0 00.139-.021 1.719 1.719 0 00-.12-.69 90.361 90.361 0 00-1.992-5.078.101.101 0 00-.2-.032c-.3.671-.429 1.388-.716 2.029-.1.27.244.406.258.669.212 1.4.33 2.866.516 4.305"/><path data-name="Path 3" d="M190.483 32.919a5.65 5.65 0 00.771-.936c.161-.254.393-.468.4-.746a10.676 10.676 0 00-1.232-1.044c-.212-.162-.4-.422-.65-.514a8.611 8.611 0 00-.81 1.062 1.87 1.87 0 00-.361.62c.553.545 1.2 1 1.771 1.533z"/><path data-name="Path 4" d="M187.303 33.06c.042.013.085.054.125.011a7.433 7.433 0 00.786-.964c.12-.239.42-.482.359-.731a17.634 17.634 0 00-1.375-1.138c-.17-.135-.3-.327-.509-.378a5.256 5.256 0 00-.555.694 4.454 4.454 0 00-.6.96c.514.573 1.22 1.03 1.774 1.546"/><path data-name="Path 5" d="M19.351 29.592a8.556 8.556 0 00-.81 1.062 1.864 1.864 0 00-.361.62c.553.544 1.2 1 1.77 1.533l.112.025a5.647 5.647 0 00.771-.936c.161-.254.392-.468.4-.746a10.684 10.684 0 00-1.232-1.044c-.212-.162-.4-.422-.65-.514"/><path data-name="Path 6" d="M36.353 10.869a8.55 8.55 0 00-.81 1.062 1.871 1.871 0 00-.361.62c.553.544 1.2 1 1.771 1.533l.112.025a5.638 5.638 0 00.771-.936c.161-.254.392-.468.4-.746a10.7 10.7 0 00-1.234-1.044c-.212-.162-.4-.422-.65-.514"/><path data-name="Path 7" d="M18.15 31.29a17.636 17.636 0 00-1.375-1.138c-.17-.135-.3-.327-.509-.378a5.212 5.212 0 00-.555.694 4.425 4.425 0 00-.6.96c.514.573 1.22 1.029 1.774 1.546.042.013.085.054.125.011a7.423 7.423 0 00.786-.964c.12-.239.42-.483.359-.731"/><path data-name="Path 8" d="M100.885 16.627a5.619 5.619 0 00.771-.935c.161-.254.392-.468.4-.746a10.693 10.693 0 00-1.232-1.044c-.212-.162-.4-.422-.65-.514a8.553 8.553 0 00-.81 1.062 1.868 1.868 0 00-.361.62c.553.544 1.2 1 1.771 1.533z"/><path data-name="Path 9" d="M97.092 13.567a5.252 5.252 0 00-.555.694 4.424 4.424 0 00-.6.96c.514.573 1.22 1.03 1.774 1.546.042.013.085.054.125.011a7.441 7.441 0 00.786-.964c.12-.239.42-.483.359-.731a17.663 17.663 0 00-1.375-1.138c-.17-.136-.3-.327-.509-.378"/><path data-name="Path 10" d="M120.833 19.385l.112.025a5.662 5.662 0 00.771-.935c.161-.254.392-.468.4-.747a10.737 10.737 0 00-1.232-1.044c-.212-.162-.4-.422-.65-.514a8.58 8.58 0 00-.81 1.062 1.862 1.862 0 00-.361.62c.553.544 1.2 1 1.77 1.533"/><path data-name="Path 11" d="M117.764 19.551c.042.013.085.054.125.011a7.425 7.425 0 00.786-.964c.12-.239.42-.482.359-.731a17.542 17.542 0 00-1.375-1.138c-.17-.135-.3-.327-.509-.378a5.254 5.254 0 00-.555.694 4.424 4.424 0 00-.6.96c.514.573 1.22 1.03 1.774 1.546"/><path data-name="Path 12" d="M165.039 16.838a8.572 8.572 0 00-.811 1.062 1.859 1.859 0 00-.362.62c.554.544 1.205 1 1.774 1.532l.112.025a5.626 5.626 0 00.772-.936c.161-.254.393-.468.4-.746a10.729 10.729 0 00-1.234-1.044c-.212-.163-.4-.422-.652-.514"/><path data-name="Path 13" d="M165.708 20.11a5.338 5.338 0 00-.555.694 4.436 4.436 0 00-.6.96c.514.573 1.22 1.03 1.774 1.546.042.013.085.054.126.011a7.443 7.443 0 00.786-.964c.12-.24.42-.483.359-.731a17.579 17.579 0 00-1.375-1.138c-.17-.135-.3-.327-.51-.378"/><path data-name="Path 14" d="M72.052 23.709a5.658 5.658 0 00.772-.936c.161-.255.393-.468.4-.746a10.7 10.7 0 00-1.234-1.044c-.212-.162-.4-.422-.651-.514a8.574 8.574 0 00-.811 1.062 1.86 1.86 0 00-.362.62c.554.545 1.205 1 1.774 1.533z"/><path data-name="Path 15" d="M72.622 26.941c.042.013.085.054.126.011a7.424 7.424 0 00.785-.964c.12-.239.42-.482.359-.731a17.646 17.646 0 00-1.375-1.138c-.17-.135-.3-.327-.509-.378a5.31 5.31 0 00-.555.694 4.438 4.438 0 00-.6.96c.514.573 1.22 1.03 1.774 1.546"/><path data-name="Path 16" d="M199.952 32.725a2.028 2.028 0 00.568-.431 9.02 9.02 0 01-2.938.407c-.133-.021-.332-.057-.346-.136-.018-.1.175-.2.246-.234a3.821 3.821 0 001.383-1.023c.061-.08.133-.182.2-.284.031-.049.123-.263.185-.284a.706.706 0 01.235.037l.234.037a1.88 1.88 0 00.47.074c.151-.026.214-.225.271-.345a1.078 1.078 0 00.161-.715 1.617 1.617 0 00-.272-.481 3 3 0 00-1.3-.961.539.539 0 00-.753.6 1.678 1.678 0 01.049.234 1.58 1.58 0 01-.123.321 1.161 1.161 0 00-.05.714c.093.219.274.286.531.357.021.006.2.034.222.062s-.007.039-.062.111a4.754 4.754 0 01-1.111.924c-.351.241-.891.6-.778 1.257.038.223.308.347.555.37a4 4 0 001.728-.3 3.648 3.648 0 00.692-.32m-.432-3.019v-.234a1.464 1.464 0 01.617.456c.053.073.176.294.135.345s-.305-.016-.444-.037a1.334 1.334 0 01-.371-.062 3.138 3.138 0 01.062-.468m-1.1.086c0-.108.149-.235.2-.284.068-.068.168-.193.3-.185.2.013.394.729.222.789a.1.1 0 01-.025 0c-.226-.015-.687-.1-.691-.32"/><path data-name="Path 17" d="M169.337 4.321c.172.072.248-.179.383-.071a5.706 5.706 0 011.186 1.575 7.986 7.986 0 01.824 2c.076.144.018.286.134.43.248-.019.306-.34.363-.52a19.513 19.513 0 00.861-4.151c.154-.376.1-.86.44-1.128a.8.8 0 01.4-.054c.518.107.729.59 1 .966a.233.233 0 00.247.125.991.991 0 00.288-.268c.172-.395.613-.788.4-1.235-.364-.536-.843-1.163-1.588-1.145-.861.144-1.072 1.074-1.454 1.683a13.482 13.482 0 00-.688 3.06c-.039.16-.02.41-.116.464-.152-.464-.382-.93-.553-1.359a11.022 11.022 0 00-2.927-3.4c-.039-.072-.173-.089-.192 0A8.82 8.82 0 00168 2.779c-.153.77.8 1.145 1.34 1.538"/><path data-name="Path 18" d="M137.559 4.321c.172.072.248-.179.382-.071a5.716 5.716 0 011.186 1.571 7.981 7.981 0 01.823 2c.076.144.018.286.134.43.248-.019.306-.34.363-.52a19.555 19.555 0 00.861-4.151c.154-.376.1-.86.44-1.128a.8.8 0 01.4-.054c.518.107.729.59 1 .966a.233.233 0 00.246.125.994.994 0 00.288-.268c.172-.395.613-.788.4-1.235-.363-.536-.843-1.163-1.588-1.145-.861.144-1.072 1.074-1.454 1.683a13.449 13.449 0 00-.688 3.06c-.039.16-.02.41-.116.464-.152-.464-.383-.93-.553-1.359a11.028 11.028 0 00-2.928-3.4c-.039-.072-.173-.089-.191 0a8.8 8.8 0 00-.346 1.486c-.153.77.8 1.145 1.34 1.538"/><path data-name="Path 19" d="M123.999 4.324c.165.069.239-.172.368-.069a5.478 5.478 0 011.141 1.516 7.652 7.652 0 01.793 1.928c.073.138.017.275.129.414.239-.018.294-.327.35-.5a18.8 18.8 0 00.828-4c.149-.362.092-.827.424-1.085a.769.769 0 01.387-.052c.5.1.7.568.959.93a.225.225 0 00.237.121.952.952 0 00.277-.258c.165-.38.59-.758.387-1.189-.35-.516-.811-1.119-1.528-1.1-.828.138-1.032 1.034-1.4 1.62a12.966 12.966 0 00-.662 2.945c-.037.155-.019.4-.111.447-.147-.447-.368-.895-.532-1.308a10.619 10.619 0 00-2.818-3.273c-.038-.069-.166-.086-.185 0a8.476 8.476 0 00-.332 1.43c-.148.741.774 1.1 1.29 1.481"/><path data-name="Path 20" d="M106.254 25.735c-.828.138-1.032 1.034-1.4 1.62a12.968 12.968 0 00-.662 2.945c-.037.155-.019.4-.112.447-.147-.447-.368-.895-.532-1.308a10.614 10.614 0 00-2.817-3.273c-.038-.069-.166-.086-.185 0a8.482 8.482 0 00-.333 1.43c-.147.741.774 1.1 1.29 1.481.165.069.239-.172.368-.069a5.481 5.481 0 011.141 1.516 7.666 7.666 0 01.793 1.929c.073.138.017.275.129.414.239-.018.294-.328.35-.5a18.8 18.8 0 00.829-4c.148-.362.092-.828.423-1.086a.769.769 0 01.386-.052c.5.1.7.568.959.93a.225.225 0 00.237.121.957.957 0 00.277-.258c.165-.38.59-.758.387-1.189-.35-.516-.811-1.119-1.528-1.1"/><path data-name="Path 21" d="M33.779 3.871c.145.06.209-.151.322-.06a4.794 4.794 0 011 1.326 6.715 6.715 0 01.693 1.687c.064.121.015.241.112.362.209-.016.257-.287.306-.438a16.446 16.446 0 00.725-3.495c.13-.317.08-.724.37-.949a.673.673 0 01.338-.045c.436.09.614.5.839.814a.2.2 0 00.208.105.834.834 0 00.242-.226c.145-.332.516-.663.339-1.04-.306-.451-.71-.979-1.337-.964-.725.121-.9.9-1.225 1.417a11.341 11.341 0 00-.579 2.576c-.033.135-.017.346-.1.391-.128-.391-.322-.783-.465-1.144a9.288 9.288 0 00-2.465-2.863c-.033-.061-.146-.075-.162 0a7.444 7.444 0 00-.291 1.251c-.129.648.677.964 1.128 1.3"/><path data-name="Path 22" d="M9.372 22.114c-.725.121-.9.9-1.224 1.417a11.339 11.339 0 00-.579 2.576c-.033.135-.017.346-.1.391-.128-.391-.322-.782-.465-1.144a9.291 9.291 0 00-2.465-2.863c-.033-.06-.146-.075-.161 0a7.435 7.435 0 00-.291 1.251c-.129.648.677.964 1.128 1.3.145.06.209-.151.322-.06a4.793 4.793 0 011 1.326 6.72 6.72 0 01.693 1.687c.064.121.015.241.112.362.209-.016.258-.286.306-.437a16.432 16.432 0 00.725-3.495c.13-.317.081-.724.371-.95a.673.673 0 01.338-.045c.435.09.613.5.839.814a.2.2 0 00.208.105.838.838 0 00.242-.225c.145-.332.516-.663.339-1.04-.306-.451-.71-.979-1.337-.964"/><path data-name="Path 23" d="M186.886 4.486c.172.071.248-.179.382-.071a5.687 5.687 0 011.185 1.571 7.953 7.953 0 01.824 2c.076.144.018.286.133.43.249-.019.306-.34.363-.52a19.52 19.52 0 00.859-4.151c.154-.377.1-.859.439-1.128a.8.8 0 01.4-.054c.516.107.727.59.995.966a.234.234 0 00.248.125.985.985 0 00.287-.268c.171-.394.612-.788.4-1.235-.362-.536-.842-1.163-1.586-1.145-.859.144-1.07 1.074-1.451 1.683a13.491 13.491 0 00-.687 3.06c-.039.16-.019.411-.116.464-.152-.464-.382-.93-.553-1.359a11.033 11.033 0 00-2.927-3.4c-.04-.072-.173-.089-.192 0a8.805 8.805 0 00-.345 1.486c-.154.77.8 1.145 1.34 1.538"/><path data-name="Path 24" d="M179.753 6.834a.643.643 0 00.559.012c.783-.469.912-1.347 1.155-2.075.009-.124.1-.288-.035-.36-.274.135-.227.527-.353.752a.628.628 0 01-1.171.05 3.117 3.117 0 01-.223-2.382 11.072 11.072 0 01.591-1.765c.069-.141.166-.409-.014-.436s-.357.359-.437.57c-.094.254-.2.47-.284.709a9.337 9.337 0 00-.647 2.947 2.3 2.3 0 00.859 1.979"/><path data-name="Path 25" d="M192.727 6.844c-.091.17.04.393-.078.576.065.2.013.393.157.576a5.32 5.32 0 00-.679 1.779 1.407 1.407 0 00.34 1.269 1.316 1.316 0 01.248.209 23.83 23.83 0 01-2.26 1.675c-.535.353-1.123.693-1.647 1.073-.615.314-1.2.719-1.819 1.086-.222.17-.471.209-.667.444-.027.053.012.079.039.092a.793.793 0 00.229-.027l-.022.036c.124-.037.248-.074.37-.116a.156.156 0 00-.011-.055 1.809 1.809 0 01.376-.152 20.639 20.639 0 003.57-1.558c.144-.065.222-.21.379-.235a17.531 17.531 0 001.646-1.3c.156.026.052-.144.17-.183.2-.143.339-.393.549-.523a2.093 2.093 0 01.692.209 2.367 2.367 0 001.413.327 1.152 1.152 0 00.615-.8 4.158 4.158 0 00.012-1.753 5.208 5.208 0 00-1.635-1.937 6.185 6.185 0 00-1.842-1.191.8.8 0 00-.145.471m2.052 2.395c0-.065-.039-.184.026-.222a4.066 4.066 0 011.008 1.008 1.375 1.375 0 01.262.6.242.242 0 01-.17.183 1.654 1.654 0 01-.838-.1 2.176 2.176 0 01-.589-.262 3.329 3.329 0 00.3-1.2m-1.517-.615c.235-.079.445.078.627.2a3.361 3.361 0 01.431.667c.053.34-.275.563-.483.772a1.56 1.56 0 01-1.123-.471.485.485 0 01-.052-.5 1.563 1.563 0 01.6-.668"/><path data-name="Path 26" d="M170.409 33.06c.783-.469.913-1.347 1.155-2.075.01-.124.1-.288-.035-.36-.275.135-.227.528-.353.752a.628.628 0 01-1.171.05 3.116 3.116 0 01-.223-2.382 11.151 11.151 0 01.591-1.765c.07-.141.166-.409-.014-.436s-.357.359-.436.57c-.095.254-.2.47-.284.709a9.34 9.34 0 00-.647 2.946 2.3 2.3 0 00.86 1.979.643.643 0 00.559.012"/><path data-name="Path 27" d="M156.126 33.047a.643.643 0 00.559.012c.783-.469.913-1.347 1.155-2.075.009-.124.1-.287-.035-.36-.275.135-.227.528-.352.752a.628.628 0 01-1.171.05 3.115 3.115 0 01-.223-2.382 11.09 11.09 0 01.59-1.765c.069-.141.166-.409-.014-.436s-.357.358-.436.57c-.094.254-.2.47-.284.709a9.344 9.344 0 00-.647 2.946 2.3 2.3 0 00.86 1.979"/><path data-name="Path 28" d="M107.823 6.411a.564.564 0 00.491.011c.688-.411.8-1.182 1.014-1.822.008-.109.087-.253-.031-.316-.241.119-.2.463-.309.66a.551.551 0 01-1.028.043 2.735 2.735 0 01-.2-2.091 9.761 9.761 0 01.518-1.549c.061-.124.145-.359-.012-.383s-.314.315-.383.5c-.083.223-.174.413-.25.622a8.2 8.2 0 00-.568 2.587 2.022 2.022 0 00.755 1.738"/><path data-name="Path 29" d="M121.109 30.984c.009-.124.1-.287-.035-.36-.274.135-.226.528-.353.752a.628.628 0 01-1.171.05 3.114 3.114 0 01-.223-2.382 11.1 11.1 0 01.59-1.765c.07-.141.166-.409-.014-.436s-.357.358-.437.57c-.094.254-.2.47-.284.709a9.331 9.331 0 00-.647 2.946 2.3 2.3 0 00.859 1.979.642.642 0 00.559.012c.783-.469.913-1.346 1.155-2.075"/><path data-name="Path 30" d="M147.765 7.306a.644.644 0 00.559.012c.783-.469.913-1.347 1.155-2.075.009-.124.1-.288-.035-.36-.274.135-.227.528-.352.752a.628.628 0 01-1.171.05 3.115 3.115 0 01-.223-2.382 11.075 11.075 0 01.59-1.765c.07-.141.166-.409-.014-.436s-.358.358-.436.57c-.095.254-.2.47-.285.709a9.331 9.331 0 00-.647 2.946 2.3 2.3 0 00.859 1.979"/><path data-name="Path 31" d="M96.654 26.868c.069-.141.166-.409-.014-.436s-.357.359-.436.57c-.094.254-.2.47-.284.709a9.343 9.343 0 00-.647 2.947 2.3 2.3 0 00.86 1.979.643.643 0 00.559.012c.783-.469.913-1.347 1.155-2.075.009-.124.1-.288-.035-.36-.275.135-.227.527-.353.752a.628.628 0 01-1.171.05 3.116 3.116 0 01-.223-2.382 11.091 11.091 0 01.59-1.765"/><path data-name="Path 32" d="M74.643 16.72c.783-.469.913-1.346 1.155-2.075.009-.124.1-.288-.035-.36-.275.135-.227.527-.353.752a.628.628 0 01-1.171.05 3.114 3.114 0 01-.223-2.382 11.094 11.094 0 01.59-1.765c.07-.141.166-.409-.014-.436s-.357.358-.436.57c-.095.254-.2.47-.285.709a9.336 9.336 0 00-.647 2.946 2.3 2.3 0 00.86 1.979.642.642 0 00.559.012"/><path data-name="Path 33" d="M206.261 27.279c.07-.141.166-.409-.014-.436s-.357.359-.437.57c-.094.254-.2.47-.285.709a9.342 9.342 0 00-.647 2.946 2.3 2.3 0 00.86 1.979.642.642 0 00.559.012c.783-.469.913-1.347 1.155-2.075.009-.124.1-.288-.035-.36-.275.135-.227.528-.353.752a.628.628 0 01-1.171.05 3.114 3.114 0 01-.223-2.382 11.126 11.126 0 01.59-1.765"/><path data-name="Path 34" d="M181.467 30.984c.009-.124.1-.287-.036-.36-.274.135-.226.528-.353.752a.628.628 0 01-1.171.05 3.116 3.116 0 01-.223-2.382 11.082 11.082 0 01.59-1.765c.069-.141.166-.409-.014-.436s-.357.358-.436.57c-.094.254-.2.47-.284.709a9.329 9.329 0 00-.647 2.946 2.3 2.3 0 00.86 1.979.643.643 0 00.559.012c.783-.469.913-1.346 1.155-2.075"/><path data-name="Path 35" d="M185.622 21.713a.527.527 0 00.458.01c.641-.383.747-1.1.945-1.7.008-.1.082-.236-.029-.295-.225.11-.185.432-.288.615a.514.514 0 01-.959.041 2.549 2.549 0 01-.183-1.95 9.076 9.076 0 01.483-1.444c.057-.115.136-.335-.011-.357s-.293.293-.357.467c-.077.208-.162.385-.233.58a7.624 7.624 0 00-.53 2.412 1.884 1.884 0 00.7 1.62"/><path data-name="Path 36" d="M56.787 30.864a.528.528 0 00.458.01c.641-.383.747-1.1.945-1.7.008-.1.082-.236-.029-.295-.225.111-.186.432-.288.615a.514.514 0 01-.959.041 2.548 2.548 0 01-.183-1.95 9.04 9.04 0 01.483-1.445c.057-.115.136-.335-.012-.357s-.292.294-.357.467c-.077.208-.162.384-.233.58a7.621 7.621 0 00-.529 2.412 1.884 1.884 0 00.7 1.621"/><path data-name="Path 37" d="M62.927 26.445a.527.527 0 00.458.01c.641-.383.747-1.1.945-1.7.008-.1.082-.236-.029-.295-.225.11-.186.431-.288.615a.514.514 0 01-.959.041 2.549 2.549 0 01-.183-1.95 9.055 9.055 0 01.483-1.445c.057-.115.136-.335-.012-.357s-.292.294-.357.467c-.077.208-.162.384-.233.58a7.626 7.626 0 00-.53 2.412 1.885 1.885 0 00.7 1.62"/><path data-name="Path 38" d="M43.703 20.001c.057-.115.136-.335-.012-.357s-.293.294-.357.467c-.077.208-.162.385-.233.58a7.626 7.626 0 00-.529 2.412 1.883 1.883 0 00.7 1.62.527.527 0 00.458.01c.641-.383.747-1.1.945-1.7.008-.1.082-.236-.029-.295-.225.11-.185.432-.288.615a.514.514 0 01-.959.041 2.548 2.548 0 01-.183-1.95A9.047 9.047 0 0143.699 20"/><path data-name="Path 39" d="M41.79 12.263c.057-.115.136-.335-.011-.357s-.293.294-.357.467c-.077.207-.162.385-.233.58a7.63 7.63 0 00-.529 2.412 1.883 1.883 0 00.7 1.62.525.525 0 00.458.01c.641-.383.747-1.1.945-1.7.008-.1.082-.236-.029-.295-.225.11-.185.432-.288.615a.514.514 0 01-.959.041 2.549 2.549 0 01-.183-1.95 9.068 9.068 0 01.483-1.444"/><path data-name="Path 40" d="M81.628 19.766a.634.634 0 01-.379-.3 2.549 2.549 0 01-.183-1.95 9.071 9.071 0 01.483-1.444c.057-.115.136-.335-.012-.357s-.292.294-.357.467c-.077.208-.162.385-.233.58a7.631 7.631 0 00-.53 2.412 1.883 1.883 0 00.7 1.62.525.525 0 00.458.01c.641-.383.747-1.1.945-1.7.008-.1.082-.236-.029-.295-.225.11-.185.432-.288.615a.63.63 0 01-.58.342"/><path data-name="Path 41" d="M113.598 22.459c-.077.208-.162.385-.233.58a7.621 7.621 0 00-.53 2.412 1.883 1.883 0 00.7 1.62.527.527 0 00.458.01c.641-.383.747-1.1.945-1.7.008-.1.081-.236-.029-.295-.225.11-.186.432-.288.615a.514.514 0 01-.959.041 2.548 2.548 0 01-.183-1.95 9.055 9.055 0 01.483-1.444c.057-.115.136-.335-.012-.357s-.292.294-.357.467"/><path data-name="Path 42" d="M50.308 19.329a7.631 7.631 0 00-.529 2.412 1.884 1.884 0 00.7 1.62.526.526 0 00.458.01c.641-.383.747-1.1.945-1.7.008-.1.082-.236-.029-.295-.225.11-.185.432-.288.615a.514.514 0 01-.959.041 2.549 2.549 0 01-.183-1.95 9.057 9.057 0 01.483-1.444c.057-.115.136-.335-.011-.357s-.293.294-.357.466c-.077.208-.163.385-.233.58"/><path data-name="Path 43" d="M20.407 6.467a.527.527 0 00.458.01c.641-.383.747-1.1.945-1.7.008-.1.082-.236-.029-.295-.225.11-.185.432-.288.615a.514.514 0 01-.959.041 2.548 2.548 0 01-.183-1.95 9.025 9.025 0 01.483-1.444c.057-.115.136-.335-.012-.357s-.292.293-.357.467c-.077.208-.162.384-.233.58a7.626 7.626 0 00-.529 2.412 1.883 1.883 0 00.7 1.62"/><path data-name="Path 44" d="M7.049 6.467a.527.527 0 00.458.01c.641-.383.747-1.1.945-1.7.008-.1.082-.236-.029-.295-.225.11-.185.432-.288.615a.514.514 0 01-.959.041 2.548 2.548 0 01-.183-1.95 9.025 9.025 0 01.483-1.444c.057-.115.136-.335-.012-.357s-.292.293-.357.467c-.077.208-.162.384-.233.58a7.626 7.626 0 00-.529 2.412 1.884 1.884 0 00.7 1.62"/><path data-name="Path 45" d="M31.556 28.165c.057-.115.136-.335-.012-.358s-.292.294-.357.467c-.077.208-.162.385-.233.58a7.63 7.63 0 00-.53 2.412 1.884 1.884 0 00.7 1.62.528.528 0 00.458.01c.641-.383.747-1.1.945-1.7.008-.1.082-.236-.029-.295-.225.11-.186.432-.288.615a.514.514 0 01-.959.041 2.549 2.549 0 01-.183-1.95 9.061 9.061 0 01.483-1.444"/><path data-name="Path 46" d="M193.747 15.13c.057-.115.136-.335-.011-.358s-.293.294-.357.467c-.077.208-.162.384-.233.58a7.619 7.619 0 00-.53 2.412 1.885 1.885 0 00.7 1.62.528.528 0 00.458.01c.641-.384.747-1.1.945-1.7.008-.1.081-.236-.029-.295-.225.11-.185.432-.288.615a.514.514 0 01-.959.041 2.547 2.547 0 01-.182-1.949 9.067 9.067 0 01.483-1.445"/><path data-name="Path 47" d="M174.816 19.694c-.093.259-.334.47-.392.746-.017.128-.166.306-.017.4a8.914 8.914 0 011.777-.777 40.863 40.863 0 014.438-1.133c.391.016.557-.357.781-.568a4.513 4.513 0 01.6-.7.147.147 0 00-.076-.194c-.278.049-.577.129-.856.194-1.041.13-2.083.6-3.181.275a2.967 2.967 0 01-1.7-1.167c-.091-.226-.353-.518-.075-.712 1.351-.567 1.974-.161 2.141.017.185.129.168.388.428.421.336-.21.448-.566.689-.841.092-.2.41-.34.317-.616a1.449 1.449 0 00-1.079-.794 3.43 3.43 0 00-2.438.892 6.028 6.028 0 00-1.25 1.289 1.441 1.441 0 00-.256 1.043 2.263 2.263 0 001.171 1.538v.048a2.164 2.164 0 00-1.023.632"/><path data-name="Path 48" d="M170.362 13.691a3.508 3.508 0 00.034 1.49c.336.778 1.143 1.151 1.784 1.62.237.14.358.423.571.54a1 1 0 00.328-.617 1.437 1.437 0 00-.267-.991c-.384-.944-1.638-.935-1.834-2a.815.815 0 01.374-.665c1.647-1.264 3.607-1.8 5.422-2.661.92-.337 1.792-.792 2.736-1.13a22.063 22.063 0 002.689-1.082 7.874 7.874 0 011.448-.5c-.059.143-.118.281-.17.425a7.627 7.627 0 00-.53 2.412 1.884 1.884 0 00.7 1.62.526.526 0 00.457.01c.641-.383.748-1.1.945-1.7.008-.1.082-.236-.029-.295-.225.11-.186.432-.288.615a.514.514 0 01-.959.041 2.548 2.548 0 01-.183-1.95 9.068 9.068 0 01.483-1.444c.01-.02.02-.044.03-.069a2.773 2.773 0 00.3-.958l-.1-.165-1.2.363c-1.886.935-3.964 1.446-5.873 2.4a45.439 45.439 0 00-5.352 2.448 4.025 4.025 0 00-1.523 2.233"/><path data-name="Path 49" d="M150.455 21.969c.237-.617.513-1.306.764-1.951.064-.224-.229-.246-.356-.34a13.081 13.081 0 00-3.121-.807 10.748 10.748 0 00-5.5.861 4.745 4.745 0 00-1.44.923 5.023 5.023 0 00-.418 1.192 6.253 6.253 0 00-.242 1.007c.015.056.071.068.126.039.575-.444 1.341-1 2.1-.6a9.72 9.72 0 012.108 1.595l1.315 1.25 1.567-1.189c.767-.546 1.533-1.106 2.344-1.569.323-.169.471-.24.756-.407m-2.49-.57c-.617.4-1.26.877-1.807 1.307l-.083.03a20.6 20.6 0 00-1.662-1.479.117.117 0 01-.03-.111 5.913 5.913 0 011.275-.21 7.781 7.781 0 012.552.277c-.039.1-.165.1-.246.186"/><path data-name="Path 50" d="M145.787 25.135l-1.314-1.25a33.66 33.66 0 01-2.249 1.455 5.965 5.965 0 01-2.927.923v.008a3.946 3.946 0 01-1.526-.449c-1.122-.608-1.294-1.856-1.561-2.857a29.826 29.826 0 01-.412-2.984c-.306-3.36-.606-8.478-.9-11.882a40 40 0 00-1.147-6.852c-.148-.155-.2.177-.239.278a12.023 12.023 0 00-.712 1.642c.067.43.163.816.244 1.232.212 1.132.381 2.222.505 3.284.2 1.132.249 2.124.375 3.229.086 1.25.146 2.673.278 4.051.089.746.265 3.536.369 4.325a34.372 34.372 0 00.763 5.782 5.1 5.1 0 001 2.107 3.269 3.269 0 001.545 1.06 8.878 8.878 0 00-.611 2.828 2.3 2.3 0 00.86 1.979.643.643 0 00.559.012c.783-.469.913-1.347 1.155-2.075.009-.124.1-.288-.035-.36-.275.135-.227.528-.353.752a.628.628 0 01-1.171.05 3.117 3.117 0 01-.223-2.382c.076-.285.135-.5.2-.7a4.463 4.463 0 00.928.12.761.761 0 01.114.008v.011h.07a.383.383 0 00.1-.006 3.927 3.927 0 001.4-.337 23.715 23.715 0 004.708-2.861c.064-.048.143-.1.212-.144"/><path data-name="Path 51" d="M154.54 25.406l.03-.051a.13.13 0 01.014-.018c0-.007.005-.014.008-.021a4.544 4.544 0 00.453-1.3c.034-.212.084-.438.106-.65a24.833 24.833 0 00-.149-6.994c-.151-1.371-.706-5.27-.757-5.658-.093-.6-.144-1.086-.24-1.7-.136-.833-.326-1.891-.406-2.687a.935.935 0 010-.557c.026-.03.056 0 .1-.006.345.371.693.783 1.037 1.125a.086.086 0 00.139-.023 1.689 1.689 0 00-.125-.689 89.667 89.667 0 00-2.044-5.065.101.101 0 00-.2-.031c-.3.673-.423 1.39-.709 2.034-.1.271.249.4.264.667.224 1.395.353 2.865.551 4.3.042.323.086.651.131.982.107.759.192 1.376.535 3.836.305 2.072.762 5.631.954 7.682a29.486 29.486 0 01.176 3.3 6.418 6.418 0 01-1.016.785 5.907 5.907 0 01-2.678.9 4.392 4.392 0 01-3.351-1.625l-1.567 1.19a13.5 13.5 0 002.155 1.963 3.57 3.57 0 002.593.653 6.78 6.78 0 003.428-1.663 2.781 2.781 0 00.523-.6.3.3 0 00.052-.084"/><path data-name="Path 52" d="M19.329 26.404a4.132 4.132 0 00.294-3.093c-.442-1.088-1.669-1.2-2.561-1.265-.835-.049-1.492-.175-2.327-.169l-.014-.014v.014h-.015v-.014h.015c3.277-1.562 6.746-3.13 10.108-4.679.909-.368 1.761-.848 2.671-1.243.455-.247.91-.383 1.364-.644l.6-1.21c.078-.239.267-.409.333-.661 0-.043-.043-.041-.058-.056-2.136.967-4.214 1.988-6.308 2.9a8.31 8.31 0 01-1.1.457 1.367 1.367 0 01-.263.047 5.259 5.259 0 01-3.368-.651 6.887 6.887 0 01-3.115-3.253 4.2 4.2 0 01-.132-.728c-.06-.218.138-.337.276-.475a3.336 3.336 0 01.713-.424 8.376 8.376 0 012.606-.486 9.783 9.783 0 001.44-.162 5.442 5.442 0 001.333-.521l.012-.007c-.024.058-.048.115-.07.175a7.631 7.631 0 00-.529 2.412 1.884 1.884 0 00.7 1.62.527.527 0 00.458.01c.641-.383.747-1.1.945-1.7.008-.1.082-.236-.029-.295-.225.11-.185.432-.288.615a.514.514 0 01-.959.041 2.549 2.549 0 01-.183-1.95 8.881 8.881 0 01.385-1.2 5.487 5.487 0 001.467-1.491 4.458 4.458 0 00.46-1.307q.1-.371.179-.746a2.715 2.715 0 00.131-.7c-.02-.218.216-.594-.1-.693-.078.039-.177.06-.216.156l-.066.465a7.325 7.325 0 01-.391 1.021c-.648 1.592-2.579 2.156-4.129 2.286-.551.046-1.105.06-1.65.151a3.912 3.912 0 00-3.054 2.554 2.93 2.93 0 00-.1.276c0 .011-.006.023-.009.034l-.031.109c0 .017-.007.034-.011.05l-.011.05c-.011.072-.019.14-.029.21-.03.216-.055.426-.064.63v.021a3.927 3.927 0 00.183 1.378 6.038 6.038 0 003.79 3.936c.1.054.28.064.3.146-1.323.628-2.535 1.171-3.788 1.741a16.092 16.092 0 00-3.037 1.71c-.157.408-.286.885-.428 1.346 0 .126-.12.282-.062.42.518.086.994.185 1.539.286a13.294 13.294 0 001.407.148 18.887 18.887 0 013.516.409c.407.171.913.4 1.035.867l-.191.2c-.475.416-.963.809-1.463 1.185a22.978 22.978 0 01-7.689 4.039A7.911 7.911 0 014 30.157a6.083 6.083 0 01-2.251-2.218 6.209 6.209 0 01-.792-4.438 15.178 15.178 0 01.809-2.734c.988-.579 1.161-1.677 1.475-2.587.013-.156.128-.361-.039-.453-.346.165-.291.659-.452.938a.963.963 0 01-.894.515.977.977 0 01-.576-.467 3.913 3.913 0 01-.249-2.991 32.85 32.85 0 011.213-3.405c.089-.176.212-.508-.008-.547a7.868 7.868 0 00-.077-2.526c-.019-.639-.21-1.176-.281-1.8-.169-.7-.275-1.513-.407-2.223a1.64 1.64 0 00-.026-.171 1.879 1.879 0 01-.03-.455.527.527 0 01.163-.3 3.453 3.453 0 011.686-.754c.328-.121.728.015 1.044-.047.042-.016.132.036.2-.026a5.57 5.57 0 00.254-.888c.022-.118.072-.252-.006-.348a7.39 7.39 0 00-1.7-1.456.968.968 0 00-.585-.053c-.116.007-.2.142-.293.192a3.374 3.374 0 00-.526 1.689.07.07 0 00.088.039c.149-.184.209-.42.386-.6a.889.889 0 01.889.267c-.3.177-.713.245-1.02.453a2.51 2.51 0 00-1 2 7.2 7.2 0 00.2 2.6 31.688 31.688 0 01.7 4.666 2.529 2.529 0 00-.217.44c-.122.316-.705 1.787-.816 2.085A11.738 11.738 0 000 18.247a2.894 2.894 0 001.054 2.494.709.709 0 00.2.071 15.984 15.984 0 00-.922 2.711c-.043.082-.018.152-.064.234a12.407 12.407 0 00-.251 3.095c.049.212.072.407.119.617a6.592 6.592 0 003.127 4.524 7.57 7.57 0 002.381.883 7.373 7.373 0 002.755 0 11.822 11.822 0 002.049-.519 24.344 24.344 0 007.339-4.228 6.584 6.584 0 001.541-1.728"/><path data-name="Path 53" d="M58.056 8.98c.038.323.078.652.119.983q.147 1.141.288 2.283c.3 2.548.248 1.859.56 4.323.28 2.075.551 4.249.719 6.3a35.577 35.577 0 01.095 4.9l.044.04c.126.021.12-.1.187-.176 1.168-2.952.771-6.025.49-8.965-.135-1.372-.34-2.741-.485-4.043-.221-1.689.035-.021-.194-1.611-.062-.415-.139-.871-.186-1.259l-.261-1.831c-.125-.835-.435-2.955-.5-3.751a.944.944 0 010-.557c.027-.03.056 0 .1-.005.338.374.678.789 1.015 1.136a.084.084 0 00.138-.021 1.718 1.718 0 00-.117-.691 90.423 90.423 0 00-1.97-5.086.101.101 0 00-.2-.032c-.3.669-.435 1.385-.725 2.025-.1.27.243.406.255.671.206 1.4.45 3.927.631 5.367"/><path data-name="Path 54" d="M143.344 9.97a98.246 98.246 0 00-5.624 2.674 2.561 2.561 0 00-.723 1.564.124.124 0 00.135.138l1.451-.9.88-.384a37.948 37.948 0 013.882-1.779v-.009c.292-.124.586-.246.879-.369l-.007.018a9.335 9.335 0 00-.647 2.946 2.3 2.3 0 00.86 1.979.644.644 0 00.559.012c.783-.469.913-1.347 1.155-2.075.009-.124.1-.288-.035-.36-.274.135-.226.527-.353.752a.628.628 0 01-1.171.05 3.115 3.115 0 01-.223-2.382c.134-.5.217-.792.346-1.143q2.664-1.109 5.341-2.133a1.55 1.55 0 00.719-1.267c-.037-.127-.121-.284-.27-.275l-.52.247a197.92 197.92 0 00-6.632 2.694"/><path data-name="Path 55" d="M127.143 9.264c-.926.343-1.852.715-2.783 1.058a1.615 1.615 0 00-.254.164 3.8 3.8 0 00-.525.92c-.012.039-.032.154.013.136.217-.065 2.187-.866 2.9-1.145.383-.134 3.492-1.3 3.582-1.338.269-.081.535-.2.807-.265.032.009.053-.016.068-.036.125-.288.23-.583.362-.864a.643.643 0 00.042-.112c0-.027-.019-.027-.029-.036-.142.057-.256.086-.423.145-.733.249-1.468.513-2.2.783z"/><path data-name="Path 56" d="M26.167 21.121c-.077.205-.161.381-.231.574a7.636 7.636 0 00-.53 2.412 1.884 1.884 0 00.7 1.62.526.526 0 00.458.01c.641-.383.747-1.1.945-1.7.008-.1.081-.236-.029-.295-.225.11-.185.432-.288.615a.514.514 0 01-.959.041 2.549 2.549 0 01-.182-1.95 9.045 9.045 0 01.483-1.445.894.894 0 00.035-.081l1.667-.808c.271-.11.535-.255.81-.351.035.007.054-.021.067-.044.1-.309.183-.625.293-.928a.706.706 0 00.032-.12c-.007-.027-.022-.026-.033-.034-.142.072-.256.113-.424.191-.735.328-1.47.67-2.2 1.02l-1.558.757c-.925.444-1.848.916-2.778 1.36a1.718 1.718 0 00-.247.194 3.965 3.965 0 00-.455 1c-.009.041-.018.163.026.139.218-.088 2.18-1.1 2.894-1.461.162-.074.806-.384 1.5-.721"/><path data-name="Path 57" d="M32.286 10.367c.219-.088 2.18-1.1 2.893-1.461.384-.175 3.488-1.682 3.578-1.725.271-.11.535-.255.81-.351.035.007.054-.021.067-.044.1-.31.183-.625.293-.929a.694.694 0 00.032-.12c-.008-.027-.023-.026-.033-.034-.142.072-.256.113-.424.191a92.66 92.66 0 00-2.2 1.02l-1.559.761c-.925.444-1.848.916-2.778 1.36a1.712 1.712 0 00-.247.194 3.96 3.96 0 00-.455 1c-.009.041-.019.163.026.139"/><path data-name="Path 58" d="M94.111 4.915c.226-.068 2.272-.9 3.015-1.189.4-.139 3.628-1.354 3.721-1.39.28-.084.556-.2.838-.275.034.009.055-.017.071-.038.131-.3.239-.606.376-.9a.7.7 0 00.043-.116c0-.028-.02-.028-.03-.037-.148.059-.265.089-.44.151-.762.259-1.525.533-2.288.814l-1.621.611c-.962.357-1.925.743-2.891 1.1a1.708 1.708 0 00-.264.171 3.963 3.963 0 00-.545.956c-.012.04-.033.16.014.141"/><path data-name="Path 59" d="M78.464 33.057c.362-.217 3.276-2.064 3.361-2.118.257-.14.5-.314.765-.44.035 0 .051-.027.061-.051.067-.319.111-.642.186-.956a.708.708 0 00.019-.122c-.011-.026-.025-.024-.037-.03-.133.088-.242.141-.4.237-.693.408-1.385.832-2.074 1.262l-1.463.928c-.869.545-1.733 1.119-2.607 1.664a1.688 1.688 0 00-.223.221 3.948 3.948 0 00-.339 1.047c0 .042 0 .164.042.135.207-.112 2.041-1.343 2.71-1.778"/><path data-name="Path 60" d="M47.036 30.094c.067-.319.111-.642.186-.955a.7.7 0 00.019-.123c-.011-.026-.025-.023-.037-.03-.132.088-.242.141-.4.237-.693.408-1.385.832-2.074 1.262l-1.462.928c-.87.545-1.733 1.119-2.608 1.664a1.687 1.687 0 00-.223.221 3.961 3.961 0 00-.339 1.047c0 .042 0 .164.042.135.207-.112 2.042-1.343 2.71-1.778.362-.217 3.276-2.064 3.361-2.118.257-.14.5-.313.765-.44.035 0 .051-.027.062-.051"/><path data-name="Path 61" d="M92.54 30.893a3.537 3.537 0 00.419-1.268.479.479 0 00-.088-.244c-.282-.341-.76-.312-1.189-.351a2.233 2.233 0 00-1.59 1.024c-.009 0-.019-.01-.029-.019a3.556 3.556 0 00.156-1.258 3.5 3.5 0 00-.644-1.648c-.185-.205-.39-.459-.673-.478-.029.01-.058.02-.068.049a6.622 6.622 0 00-.176 1.259 5.573 5.573 0 00.146 1.716c.02.039.039.107.1.107.01-.01.029-.019.029-.039a8.175 8.175 0 01-.01-1.951.045.045 0 01.039-.068l.224.166a2.894 2.894 0 01.5.771 3.66 3.66 0 01.2.81 5.406 5.406 0 01-.088.917 5.329 5.329 0 00-.9 1.454l-.292.078c-.342.059-1.822.132-2.087.166-.039.029-.088.059-.088.107.091.255.989.44 1.268.508a4.974 4.974 0 002.36-.225 5.449 5.449 0 001.463-.624 4.1 4.1 0 001.015-.956m-2.049.575c-.4.088-.8.215-1.19.322l-.029-.019a4.447 4.447 0 011.19-1.483 1.436 1.436 0 011.268-.292 1.126 1.126 0 01.683.322c-.049.136-.2.214-.3.322a4.762 4.762 0 01-1.276.69 2.4 2.4 0 01-.344.139"/><path data-name="Path 62" d="M149.208 31.051c.017-.033.05-.091 0-.125a.176.176 0 00-.124.042 4.548 4.548 0 01-1 .8 3.621 3.621 0 01-1.426.414 1.25 1.25 0 01-1.26-.646c-.108-.5.323-.837.663-1.144.39-.3.779-.6 1.143-.937a1.682 1.682 0 00.332-.605c.024-.083.108-.207.008-.274-.074-.033-.1.067-.157.091a3.625 3.625 0 01-.912.8.809.809 0 01-.755-.3 1.045 1.045 0 01-.24-.423.917.917 0 01.564-.149c.165-.017.273.125.422.157a1.008 1.008 0 00.34-.787.374.374 0 00-.166-.116 1.007 1.007 0 00-1.11.282 3.282 3.282 0 00-.564 1.144 1.187 1.187 0 00.572.9c.033.025.083.025.091.074a6.539 6.539 0 00-.464.713c-.091.3-.307.555-.274.9a.743.743 0 00.017.357 1.245 1.245 0 00.995.8 3.14 3.14 0 001.9-.439 4.275 4.275 0 00.862-.663c.232-.266.34-.581.547-.862"/><path data-name="Path 63" d="M24.327 32.17a1.244 1.244 0 00.995.8 3.14 3.14 0 001.9-.439 4.266 4.266 0 00.862-.663c.232-.265.34-.58.547-.862.017-.033.05-.091 0-.125a.173.173 0 00-.124.042 4.54 4.54 0 01-1 .8 3.624 3.624 0 01-1.425.415 1.251 1.251 0 01-1.26-.646c-.108-.5.323-.837.664-1.144.389-.3.779-.6 1.143-.937a1.678 1.678 0 00.332-.6c.025-.083.108-.207.008-.274-.074-.033-.1.066-.158.091a3.619 3.619 0 01-.912.8.809.809 0 01-.754-.3 1.048 1.048 0 01-.241-.423.918.918 0 01.564-.149c.165-.017.273.124.422.157a1.009 1.009 0 00.34-.787.376.376 0 00-.166-.116 1.007 1.007 0 00-1.11.282 3.285 3.285 0 00-.564 1.144 1.186 1.186 0 00.572.9c.033.025.083.025.091.074a6.549 6.549 0 00-.464.713c-.091.3-.307.555-.273.895a.736.736 0 00.017.357"/><path data-name="Path 64" d="M129.708 30.308a3.732 3.732 0 001.661.671c.129-.021.294.01.389-.1a1.536 1.536 0 00.192-1.4l-.142-.372a1.192 1.192 0 00-.368-.5.511.511 0 00-.528-.016 1.773 1.773 0 00-.561.609c-.057.114-.111.2-.168.312-.071.035-.113-.066-.17-.1-.087-.016-.1.081-.175.125-.133.236-.258.493-.411.718a2.642 2.642 0 01-.677.6 10.146 10.146 0 01-2 .964c-.755.292-1.4.553-2.18.785-.431.148-.857.217-1.307.343a.575.575 0 01-.249.052 1.819 1.819 0 00-.643.241.114.114 0 00.1.085c.227-.014.487-.1.734-.127a18.026 18.026 0 012.092-.212 5.193 5.193 0 00.564-.09c.278-.05.512-.172.781-.242.526-.239 1.082-.486 1.611-.774.08-.024.137-.138.225-.151a8.337 8.337 0 00.726-.588c.09-.171.219-.339.31-.519.065-.094.094-.229.187-.311m1.085-.966c.342.014.519.446.627.728-.071.034-.164-.041-.243-.036a3.494 3.494 0 01-.846-.4.642.642 0 01.461-.292"/><path data-name="Path 65" d="M11.304 17.658a2.252 2.252 0 00.38-1.242c.07-.972-.613-1.629-.815-2.662-.037-.238-.1-.083-.248.3-.152.407-.12.4-.119.511a10.2 10.2 0 00.818 2.125c.031.065-.033.129-.087.173a1.433 1.433 0 01-1.3.195c-.785-.326-.854-1.168-.963-1.86a3.393 3.393 0 00-.44-1.4c-.071-.092-.074-.037-.226.422-.11.38-.109.385-.081.46a3.259 3.259 0 01.265 2.089 1.677 1.677 0 01-1.106.81 1.028 1.028 0 01-1.006-.313 1.725 1.725 0 01-.241-1.022 6.749 6.749 0 00.021-1.7c-.058-.157-.088-.054-.288.379-.163.391-.139.378-.128.489.147.734-.212 1.687.149 2.451a1.227 1.227 0 00.94.708c1.069.11 1.616-.579 1.959-1.645a1.68 1.68 0 001.218 1.157 1.256 1.256 0 001.3-.422"/><path data-name="Path 66" d="M40.777 9.924a1.226 1.226 0 00.94.708c1.069.11 1.616-.579 1.959-1.645a1.679 1.679 0 001.217 1.157 1.256 1.256 0 001.3-.422 2.25 2.25 0 00.38-1.242c.07-.972-.613-1.629-.815-2.662-.037-.238-.1-.083-.248.3-.152.408-.12.4-.119.511a10.191 10.191 0 00.817 2.125c.031.064-.032.129-.087.173a1.432 1.432 0 01-1.3.195c-.785-.326-.854-1.168-.963-1.86a4.331 4.331 0 00-.322-1.206 1.474 1.474 0 00.184-.352c.077-.208.162-.384.233-.58a7.636 7.636 0 00.53-2.412 1.884 1.884 0 00-.7-1.62.526.526 0 00-.458-.01c-.641.383-.747 1.1-.945 1.7-.008.1-.082.236.029.295.225-.11.185-.432.288-.615a.514.514 0 01.959-.041 2.547 2.547 0 01.183 1.95 9.054 9.054 0 01-.483 1.444.79.79 0 00-.065.181c-.024.07-.053.163-.094.287-.11.38-.109.385-.081.46a3.258 3.258 0 01.265 2.09 1.677 1.677 0 01-1.106.81 1.028 1.028 0 01-1.006-.313 1.726 1.726 0 01-.241-1.022 6.739 6.739 0 00.021-1.7c-.058-.157-.088-.054-.288.379-.163.391-.139.378-.128.488.147.735-.213 1.687.149 2.451"/><path data-name="Path 67" d="M100.146 10.493a1.427 1.427 0 001.473-.48 2.554 2.554 0 00.432-1.411c.079-1.1-.7-1.851-.925-3.024-.042-.27-.113-.094-.282.344-.172.463-.136.459-.134.581a11.577 11.577 0 00.929 2.414c.036.073-.037.147-.1.2a1.629 1.629 0 01-1.474.221c-.892-.37-.969-1.327-1.093-2.113a3.859 3.859 0 00-.5-1.594c-.08-.1-.084-.042-.256.48-.125.431-.124.437-.092.523a3.7 3.7 0 01.3 2.373 1.9 1.9 0 01-1.256.92 1.167 1.167 0 01-1.142-.355 1.958 1.958 0 01-.274-1.161 7.678 7.678 0 00.024-1.934c-.066-.179-.1-.061-.327.43-.186.445-.158.429-.145.555.167.835-.241 1.916.169 2.784a1.392 1.392 0 001.067.8c1.214.125 1.835-.658 2.225-1.868a1.908 1.908 0 001.383 1.314"/><path data-name="Path 68" d="M125.412 17.863c1.169.12 1.766-.633 2.141-1.8a1.837 1.837 0 001.331 1.265 1.374 1.374 0 001.418-.462 2.465 2.465 0 00.415-1.358c.076-1.063-.67-1.782-.891-2.911-.041-.26-.109-.091-.271.331-.166.445-.132.442-.13.559a11.151 11.151 0 00.894 2.324c.034.071-.036.141-.1.189a1.568 1.568 0 01-1.419.213c-.858-.356-.933-1.277-1.052-2.033a3.713 3.713 0 00-.482-1.534c-.077-.1-.081-.04-.246.461-.121.415-.119.421-.089.5a3.563 3.563 0 01.289 2.284 1.832 1.832 0 01-1.209.885 1.125 1.125 0 01-1.1-.342 1.881 1.881 0 01-.263-1.117 7.406 7.406 0 00.023-1.861c-.064-.172-.1-.059-.315.414-.179.428-.152.413-.14.534.161.8-.232 1.844.163 2.68a1.34 1.34 0 001.027.774"/><path data-name="Path 69" d="M87.746 10.132a.138.138 0 00.055.107 4.6 4.6 0 012.138-.328c.4-.015.852.09 1.285.12.209.06.509.016.687.179a2.478 2.478 0 01-.583.447c-.492.328-1.105.478-1.673.791a12.526 12.526 0 00-1.435.611v.06c.029.074.134.089.179.089a6.907 6.907 0 001.675-.193 4.038 4.038 0 002.018-.895 8.236 8.236 0 001.63-2.5c.031-.1.031-.239-.09-.284a5.934 5.934 0 00-.732-.224c-.524-.06-1.062-.134-1.571-.179a7.183 7.183 0 00-1.494.015 1.875 1.875 0 00-1.133.674 13.71 13.71 0 00.74-3.9 12.3 12.3 0 00-.172-2.147c-.133-.6-.441-1.851-.591-1.7a2.235 2.235 0 00-.54 1.532 8.762 8.762 0 01.543 3.284 10.782 10.782 0 01-.781 4.094l-.083.127a1.127 1.127 0 00-.07.219"/><path data-name="Path 70" d="M163.71 9.061a12.246 12.246 0 00-.852 3.877 3.032 3.032 0 001.13 2.6.848.848 0 00.737.016c1.029-.617 1.2-1.771 1.518-2.729.012-.164.13-.38-.046-.475-.362.178-.3.694-.465.988a1.007 1.007 0 01-.931.549 1.022 1.022 0 01-.609-.483 4.1 4.1 0 01-.293-3.134 14.3 14.3 0 01.749-2.252 8.377 8.377 0 00-.674-7.1c-.073-.131-.331.17-.528.513a1.2 1.2 0 00-.236.69 8.015 8.015 0 011.055 5.135 10.774 10.774 0 01-.555 1.8"/><path data-name="Path 71" d="M48.369 8.458a11.23 11.23 0 00-.781 3.55 2.776 2.776 0 001.035 2.384.777.777 0 00.675.014c.943-.565 1.1-1.622 1.39-2.5.011-.149.119-.347-.042-.434-.332.163-.273.636-.426.9a.922.922 0 01-.852.5.936.936 0 01-.558-.442 3.76 3.76 0 01-.268-2.869 13.149 13.149 0 01.686-2.063 7.671 7.671 0 00-.617-6.5c-.067-.121-.3.156-.483.47a1.1 1.1 0 00-.216.632 7.342 7.342 0 01.966 4.7 9.932 9.932 0 01-.508 1.649"/><path data-name="Path 72" d="M64.487 8.458a11.229 11.229 0 00-.781 3.55 2.776 2.776 0 001.035 2.384.777.777 0 00.675.014c.943-.565 1.1-1.622 1.39-2.5.011-.149.119-.347-.042-.434-.332.163-.273.636-.426.9a.922.922 0 01-.853.5.936.936 0 01-.558-.442 3.757 3.757 0 01-.268-2.869 13.114 13.114 0 01.686-2.063 7.671 7.671 0 00-.617-6.5c-.067-.121-.3.156-.483.47a1.1 1.1 0 00-.216.632 7.342 7.342 0 01.966 4.7 9.911 9.911 0 01-.508 1.658"/><path data-name="Path 73" d="M79.677 8.478a11.223 11.223 0 00-.78 3.55 2.777 2.777 0 001.035 2.384.778.778 0 00.675.014c.943-.565 1.1-1.622 1.39-2.5.011-.15.119-.347-.042-.435-.331.163-.273.636-.426.905a.922.922 0 01-.852.5.936.936 0 01-.558-.442 3.757 3.757 0 01-.268-2.869 13.135 13.135 0 01.686-2.063 7.672 7.672 0 00-.617-6.5c-.067-.121-.3.156-.483.469a1.1 1.1 0 00-.216.632 7.342 7.342 0 01.966 4.7 9.909 9.909 0 01-.508 1.649"/><path data-name="Path 74" d="M109.417 13.2a6.511 6.511 0 00-.524-5.518c-.057-.1-.258.132-.41.4a.934.934 0 00-.184.536 6.232 6.232 0 01.82 3.991 8.339 8.339 0 01-.431 1.4 9.519 9.519 0 00-.662 3.013 2.355 2.355 0 00.878 2.023.659.659 0 00.573.012c.8-.48.932-1.376 1.18-2.121.009-.127.1-.295-.036-.369-.281.138-.232.539-.362.768a.783.783 0 01-.724.427.8.8 0 01-.473-.375 3.189 3.189 0 01-.228-2.435 11.108 11.108 0 01.582-1.751"/><path data-name="Path 75" d="M117.272 7.452a9.523 9.523 0 00-.662 3.013 2.356 2.356 0 00.878 2.024.658.658 0 00.573.012c.8-.48.932-1.376 1.18-2.121.009-.127.1-.295-.036-.369-.281.138-.232.539-.361.768a.782.782 0 01-.724.427.8.8 0 01-.473-.375 3.19 3.19 0 01-.228-2.436 11.156 11.156 0 01.582-1.751 6.512 6.512 0 00-.524-5.518c-.057-.1-.258.132-.41.4a.935.935 0 00-.184.537 6.232 6.232 0 01.82 3.991 8.375 8.375 0 01-.431 1.4"/><path data-name="Path 76" d="M26.416 7.076a9.554 9.554 0 00-.664 3.022 2.363 2.363 0 00.881 2.03.661.661 0 00.574.012c.8-.481.935-1.38 1.184-2.128.01-.127.1-.3-.036-.37-.282.139-.233.541-.362.771a.785.785 0 01-.726.428.8.8 0 01-.475-.376 3.2 3.2 0 01-.229-2.443 11.152 11.152 0 01.584-1.755 6.531 6.531 0 00-.525-5.535c-.057-.1-.258.133-.411.4a.936.936 0 00-.184.538 6.251 6.251 0 01.822 4 8.439 8.439 0 01-.433 1.4"/><path data-name="Path 77" d="M12.001 3.841c.141.063.2-.156.313-.062a4.984 4.984 0 01.97 1.376 7.134 7.134 0 01.661 1.71c.019.12.028.2.028.2a5.18 5.18 0 01-.456.6 10.915 10.915 0 01-.817.768 18.568 18.568 0 01-5.159 2.794c-1.075.407-2.124.884-3.185 1.33l.037.092c.065-.015.132-.029.2-.047.954-.263 1.912-.512 2.86-.793a23.972 23.972 0 003.175-1.02 7.033 7.033 0 003.376-3.076 5.009 5.009 0 00.286-.642 6.175 6.175 0 00.273-.862l.037-.127c.246-.952.312-1.919.473-2.886.125-.328.078-.751.36-.985a.621.621 0 01.329-.047c.422.094.594.516.813.845a.189.189 0 00.2.109.832.832 0 00.235-.234c.141-.345.5-.688.329-1.079-.3-.469-.689-1.017-1.3-1-.7.125-.876.938-1.189 1.47a12.569 12.569 0 00-.563 2.675c-.032.141-.016.36-.094.407-.125-.407-.312-.813-.453-1.188a9.476 9.476 0 00-2.393-2.972c-.031-.062-.141-.078-.156 0a8.081 8.081 0 00-.282 1.3c-.125.673.657 1 1.095 1.345"/><path data-name="Path 78" d="M69.752 10.941a10.284 10.284 0 002.194-1.4 3.854 3.854 0 00.814-.909 3.7 3.7 0 00.374-.774 3.2 3.2 0 00.357-.878c.047-.133.226-.817.262-.982a8.9 8.9 0 00.217-1.445 6.375 6.375 0 01.411-2.136.8.8 0 01.667-.328 1.112 1.112 0 01.661.484c.014.038.043.1.1.114a4.575 4.575 0 00.417-.671c.139-.232.182-.338.156-.431a1.287 1.287 0 00-.966-.845 1.109 1.109 0 00-.932.574 4.069 4.069 0 00-.692 1.663 14.964 14.964 0 00-.351 2.343c-.079-.023-.058-.129-.112-.179a9.177 9.177 0 00-.55-1.325 6.553 6.553 0 00-2.529-2.685l-.092-.01c-.182.034-.213.244-.272.39-.049.408-.253.861-.04 1.284a2.778 2.778 0 001.261.774c.092.009.06-.12.152-.111a6.71 6.71 0 011.694 2.745c.112.249.222.583.109.767a5.064 5.064 0 01-.855 1.2c-1.128 1.244-3.29 2.8-3.317 3.077a.187.187 0 00.146.06 7.493 7.493 0 01.718-.369"/><path data-name="Path 79" d="M119.268 25.126c.492-.186.954-.416 1.386 0a15.538 15.538 0 001.668 2.167 4.395 4.395 0 002.409 1.317 7.3 7.3 0 003.792-.756 8.979 8.979 0 01.123.931c0 .088.118.071.177.069.244-.181.105-.484.158-.733.026-.161-.052-.364.018-.5a11.035 11.035 0 002.8-2.106 4.915 4.915 0 001.082-2.505 5.368 5.368 0 00.012-2.043c-.064-.261-.186-.477-.249-.709-.275-.534-.6-1.3-1.287-1.431-.543-.134-1.144.42-1.426.835a11.482 11.482 0 00-1.46 5.826c-.026.132.051.306-.064.4a7.939 7.939 0 01-2.746.529c-.1-.027-.263-.009-.4-.05-1.359-.072-2.377-1.231-3.2-2.292-.42-.516-.644-1.357-1.4-1.413a3.676 3.676 0 00-2.081.908 8.7 8.7 0 00-2.345 2.81c-.8 1.3-1.031 2.84-2.01 4.044a1.538 1.538 0 01-1.489.646 3.811 3.811 0 01-1.775-2.368 6.494 6.494 0 01-.29-1.876 6.877 6.877 0 01-.005-.843c0-.049.007-.1.01-.148.016-.248.041-.5.073-.747h.014c-.006-.035-.007-.07-.01-.1.09-.6.259-1.228.408-1.835a3.792 3.792 0 001.724-1.5 7.868 7.868 0 00.685-2.846 34.145 34.145 0 00-.34-7.337c-.018-.144-.138-.788-.21-1.3h-.009c-.211-1.606-.426-3.32-.6-4.631.026-.029.063-.142.122-.076.25.28.433.606.683.886.19.186.372.5.625.554a.137.137 0 00.065-.1 5.108 5.108 0 00-.435-1.511c-.67-1.486-1.327-2.972-2.063-4.386l-.042-.011a13.657 13.657 0 00-.669 2.024 2.646 2.646 0 01.357 1.041c.134 1.552.252 2.853.737 6.486l.015.108.174 1.287h.008l.05.355c.342 2.4.546 4.681.66 7.056a3.8 3.8 0 01-.036.977 4.215 4.215 0 01-.566.4 5.3 5.3 0 01-2.261.592 3.145 3.145 0 01-1.427-.3 4 4 0 01-1.545-2.952 35.618 35.618 0 01-.162-1.076c-.029-.256-.057-.517-.1-.794-.2-2.07-.393-3.952-.577-5.656-.673-7.1-1.134-9.059-1.349-9.493-.094-.215-.669 1.588-.772 1.946.088.968.515 4.918.8 7.547l.01.081c.113 1.023.2 1.835.243 2.175l.013-.021c.107.916.211 1.829.291 2.592v.041c.119 1.35.338 3.981.411 4.9.019.254.034.518.041.653a.289.289 0 01-.144.2 5.508 5.508 0 01-.932.514 5.359 5.359 0 01-1.725.4 2.854 2.854 0 01-.767-.162 2.3 2.3 0 01-1.489-1.679c.013-.225.2-.447.252-.677.042-.167.125-.292.056-.473-.292-.028-.584.222-.835.347a12.54 12.54 0 01-6.521 3.053l-.02.9.019-.9h-.018a6.416 6.416 0 001.83-3.478 2.54 2.54 0 00-.984-2.149 5.323 5.323 0 00-3.357-1.293 4.582 4.582 0 00-3.18 1.254 20.661 20.661 0 00-2.526 2.8c.044-.195.154-.653.259-1.264.05-.276.091-.553.122-.83a12.452 12.452 0 00.077-2.466 43.727 43.727 0 00-.207-2.816c-.015-.149-.03-.3-.043-.448a.028.028 0 010-.012l-.344-2.577c-.075-.49-.212-1.417-.327-2.263-.033-.267-.059-.5-.074-.67a.957.957 0 010-.558c.028-.03.056 0 .1 0 .337.372.677.788 1.015 1.133a.084.084 0 00.138-.019 1.722 1.722 0 00-.117-.692A91.009 91.009 0 0083.998.954a.101.101 0 00-.2-.031c-.3.668-.434 1.385-.723 2.027-.05.124.242.4.256.671.122.825.258 2.044.385 3.2h-.015c0 .033.009.066.012.1l.108.84c.05.453.1.873.142 1.226l.122.954h.018c.1.722.191 1.45.277 2.18.139 1.154.26 2.3.353 3.423.026.3.048.6.068.891a9.747 9.747 0 01-.56 4.7c-.315.464-.658.958-.909 1.29s-.471.682-.707 1.01a5.722 5.722 0 01-.443.524 8.092 8.092 0 01-1.1.042l-.038-.044a5.45 5.45 0 00-.786-1.848 3.015 3.015 0 00-1.887-1.407 2.3 2.3 0 00-2.273 1.08 4.039 4.039 0 00-.678 2.478 3.037 3.037 0 00.29.9 2.327 2.327 0 002.129.919c.3 0 .624.056.912.054.416.012.876-.03 1.435-.026.06.137.134.321.218.542a11.723 11.723 0 01-1.009.972 22.546 22.546 0 01-6.935 4.092 7.156 7.156 0 01-3.671.462 3.672 3.672 0 01-2.74-2.376 4.881 4.881 0 01-.021-2.4 12.028 12.028 0 00.934-1.25 4.277 4.277 0 00.646-2.213 10.433 10.433 0 00-.306-3.1l.028-.028a2.306 2.306 0 00.87-.3 5.024 5.024 0 002.093-2.816c.214-.381.465-.97.994-.968a.558.558 0 01.34.243 2.735 2.735 0 01.26 1.692.909.909 0 00.038.431c.14.024.135-.184.217-.269a6.332 6.332 0 00.307-1.8 3.736 3.736 0 01.018-.418 5.436 5.436 0 00-.238-1.289 1.157 1.157 0 00-.853-.8c-.583.082-.9.674-1.143 1.138a5.746 5.746 0 01-1.3 2.1 3.062 3.062 0 01-2.458.821 8.261 8.261 0 00-1.008-1.494.046.046 0 00-.069 0c-.02.334-.056.613-.09.948a5.117 5.117 0 00-.086 1.115 8.582 8.582 0 011.784 3.842 2.131 2.131 0 01.077.972 21.628 21.628 0 01-4.149 4.2 16.514 16.514 0 01-4.507 2.522 4.654 4.654 0 01-2.541.224 4.252 4.252 0 01-2.2-1.646 3.91 3.91 0 00.593-.949c1.2-3.074.7-6.43.527-9.362a452.323 452.323 0 00-.326-3.232h.018c-.27-2.481-.556-4.953-.856-7.487-.1-.86-.191-1.666-.265-2.5 0-.111-.09-.276.076-.335.3.355.546.753.846 1.122.128.122.273.4.481.365a.535.535 0 00.035-.293 15.025 15.025 0 00-.965-2.678c-.323-.73-.588-1.392-.939-2.121-.132-.3-.235-.566-.4-.868-.029-.041-.058-.138-.113-.081a12.957 12.957 0 00-.692 2.005l.188.344a.352.352 0 00.046.194 20.647 20.647 0 01.238 2.541c.2 1.874.362 3.707.543 5.581.085.819.167 1.582.248 2.336h-.016l.046.43c.055.447.109.9.162 1.357 0 .029.006.058.009.088.259 2.2.5 4.454.663 6.662.033.208.022.348.054.57.069 1.223.153 2.459.126 3.754a4.011 4.011 0 01-.938.994 14.087 14.087 0 01-.082-.622 9.733 9.733 0 01.213-2.273c.02-.376.262-.715.046-1.045-.206.13-.242.367-.335.592a12.55 12.55 0 00-.537 3.761 3.993 3.993 0 01-.821.275 2.585 2.585 0 01-2.708-1c-.809-1.332-.771-2.71-.942-4.153a22.638 22.638 0 00-1.338-6.9 22.037 22.037 0 00-1.827-3.924 8.437 8.437 0 00-.762-1.082c-.028-.013-.07 0-.069.03a4.79 4.79 0 00-.08.794 11.8 11.8 0 00-.14 1.172 36.079 36.079 0 011.976 4.992 27.4 27.4 0 011.19 5.261c.03.1-.079.183-.1.295-.569.681-1.042 1.317-1.695 1.972a28.418 28.418 0 01-5.592 4.4c-1.1.554-2.506 1.169-3.638.346a2.765 2.765 0 01-1.057-2.453 10.077 10.077 0 01.183-1.4 3.563 3.563 0 001.609-.057 4.186 4.186 0 00.692-.183 9.078 9.078 0 003.238-1.993 2.485 2.485 0 00.729-1.63 7.1 7.1 0 00.128-1.714 6.461 6.461 0 00-.167-1.234c-.479-1.506-1.3-3.338-3-3.885a1.892 1.892 0 00-.961-.062 3.063 3.063 0 00-2.113 2.566 3.349 3.349 0 00.187 2.111 1.6 1.6 0 001.381.776 22.289 22.289 0 012.559-.086 1.969 1.969 0 011.394.762c.184.135-.008.278-.09.378a8.219 8.219 0 01-3.67 1.975 4.27 4.27 0 01-1.34.127c.235-.681.516-1.388.723-2.061a.2.2 0 00-.156-.122c-.138.045-.218.186-.314.286a8.067 8.067 0 00-.764 1.819 2.315 2.315 0 01-1.327-.84 5.594 5.594 0 01-.689-1.543 43.286 43.286 0 01-.783-5.743c-.05-.557-.1-1.1-.139-1.624-.2-2.933-.345-5.768-.643-8.7a36.075 36.075 0 00-.7-5.025c-.124-.251-.209.1-.251.18-.2.667-.493 1.361-.746 2.014.041.222.1.431.122.654.231 1.128.393 2.45.513 3.535.172 2.06.276 3.674.434 5.567l.028.31c.11 1.306.218 2.613.337 3.914v.008c.122 1.336.257 2.667.421 3.985.244 1.581.48 3.412 1.705 4.678a3.389 3.389 0 001.119.707 8.936 8.936 0 00-.25 4.032 3.19 3.19 0 001.678 2.2 3.445 3.445 0 003.223-.211 22.034 22.034 0 004.5-3.273 16.3 16.3 0 002.89-3.293 15.251 15.251 0 00.625-1.906l.042.027c.052.444.088.8.14 1.249.046.193-.018.459.1.637a8.818 8.818 0 00.8 2.96 2.782 2.782 0 00.165.268c-.061.149-.122.29-.176.439a7.634 7.634 0 00-.529 2.412 1.884 1.884 0 00.7 1.62.528.528 0 00.458.01c.641-.384.747-1.1.945-1.7.008-.1.082-.236-.029-.295-.225.11-.186.432-.288.615a.514.514 0 01-.959.041 2.548 2.548 0 01-.183-1.95c.107-.4.174-.636.274-.913a3.092 3.092 0 001.894 1.029 4.173 4.173 0 002.253-.492 4.711 4.711 0 001.259 1.931 4.344 4.344 0 004.209.893 17.458 17.458 0 006.039-3.7q.472-.415.918-.86a7.858 7.858 0 00-.161 1.78 4.679 4.679 0 00.851 2.635 4.256 4.256 0 002.076 1.42c1.7.545 3.722-.184 5.41-.884a24.313 24.313 0 002.688-1.372 18.569 18.569 0 004.182-3.366 4.828 4.828 0 00.873-1.622h.014c.007-.034.011-.068.017-.1l.007-.023c.04-.141.077-.284.109-.427h-.045c.012-.095.025-.191.033-.283a46.032 46.032 0 007.452-.786c.378-.067.7-.13.972-.183a51.323 51.323 0 003.958-.911c4.379-1.1 6-2.9 6.224-3.169a5.649 5.649 0 00.151.75 3.356 3.356 0 001.272 1.869 2.914 2.914 0 001.491.521v.016c.031 0 .061-.008.092-.011h.075v-.013a4.1 4.1 0 002.755-1.52 4.67 4.67 0 00.705-2.591 7.275 7.275 0 00.542 1.615 2.948 2.948 0 001.884 1.665 3.706 3.706 0 001.072.089 3.567 3.567 0 00.958-.162c-.081.22-.14.447-.227.677a18.427 18.427 0 00-.415 2.439h.027c-.03.256-.053.508-.058.751a8.579 8.579 0 00.885 4.314 2.358 2.358 0 002.1 1.441c1.178-.143 1.808-1.369 2.209-2.341a19.99 19.99 0 011.307-2.9 7.186 7.186 0 012.643-2.526m10.506-3.3a1.14 1.14 0 01.917-.78c.658.059.95.738 1.181 1.258a4.155 4.155 0 01.318 1.16 5.55 5.55 0 01-.8.748 11.072 11.072 0 01-2.406 1.4 10.113 10.113 0 01.79-3.783M79.25 23.999a4.7 4.7 0 01-2.544-.32.917.917 0 01-.325-.369c.1-.314.446-.431.73-.51a2.029 2.029 0 012.154 1.172zm-42.587-4.781c-.21-.079-.544-.057-.7-.318a1.21 1.21 0 011.081-.817 2.424 2.424 0 011.929 1.028 21.654 21.654 0 01-2.307.107m52.073 3.755a22.647 22.647 0 01-5.663.935l.092-.118c.76-1.121 1.6-2.283 2.489-3.36 1.208-1.437 2.793-3.135 4.74-2.967a5.3 5.3 0 013.022 1.249 3.418 3.418 0 01.976 1.51c.026.167-.2.263-.281.332a21.68 21.68 0 01-5.375 2.419"/><path data-name="Path 80" d="M4.181 49.914a1.647 1.647 0 01-.992.38 1.217 1.217 0 01-1.087-.575 4.094 4.094 0 01-.374-2.08v-.356a4.184 4.184 0 01.446-2.275 1.672 1.672 0 011.472-.636 5.966 5.966 0 011.26.167l.111-.056.1-.88-.234-.056q-.223-.044-.613-.1a5.2 5.2 0 00-.725-.055 2.787 2.787 0 00-2.236.875 4.535 4.535 0 00-.753 2.949v.4q0 3.646 2.42 3.646a2.274 2.274 0 001.55-.6l.167.468h.636v-4.148H4.181z"/><path data-name="Path 81" d="M7.738 47.617h2.074v-.87H7.738v-2.244h2.42v-.981H6.59v7.6h3.691v-.981H7.738z"/><path data-name="Path 82" d="M15.409 48.275l.047.827-.067.011-.033-.078a1.632 1.632 0 00-.072-.212 1.692 1.692 0 00-.095-.2l-2.765-5.1h-1.185v7.6h1.148v-4.75l-.056-.825.067-.011.212.513 2.776 5.073h1.17v-7.6h-1.147z"/><path data-name="Path 83" d="M19.211 47.617h2.074v-.87h-2.074v-2.244h2.42v-.981h-3.568v7.6h3.691v-.981h-2.542z"/><path data-name="Path 84" d="M26.125 47.84v-.038a1.79 1.79 0 001.193-1.862v-.157q0-2.263-2.531-2.263h-2.074v7.6h1.148v-3.111h.858a.418.418 0 01.424.279l1.137 2.832h1.238l-1.093-2.765a1.205 1.205 0 00-.3-.524m-1.327-.68h-.937v-2.649h.814a1.721 1.721 0 011.143.307 1.341 1.341 0 01.351 1.054v.111q0 1.182-1.371 1.182"/><path data-name="Path 85" d="M29.96 43.525l-2.04 7.6h1.193l.457-1.784h2.33l.457 1.784h1.193l-2.041-7.6zm-.134 4.839l.736-2.854q.067-.256.134-.68h.078l.134.68.736 2.854z"/><path data-name="Path 86" d="M35.577 43.525h-1.148v7.6h3.457v-.981h-2.309z"/><path data-name="Path 87" d="M42.203 43.525l-2.04 7.6h1.193l.457-1.784h2.33l.457 1.784h1.193l-2.041-7.6zm-.134 4.839l.736-2.854q.067-.256.134-.68h.078l.134.68.736 2.854z"/><path data-name="Path 88" d="M50.143 48.621q0 1.673-1.271 1.673t-1.271-1.673v-5.1h-1.149v4.906q0 2.833 2.33 2.832h.167q2.341 0 2.341-2.832v-4.906h-1.148z"/><path data-name="Path 89" d="M52.116 44.503h1.561v6.623h1.148v-6.623h1.561v-.981h-4.27z"/><path data-name="Path 90" d="M61.07 46.815h-2.654v-3.289h-1.148v7.6h1.148v-3.345h2.654v3.345h1.148v-7.6H61.07z"/><path data-name="Path 91" d="M66.054 43.391h-.129q-2.4 0-2.4 3.7v.479q0 3.691 2.4 3.691h.134q2.42 0 2.42-3.691v-.479q0-3.7-2.42-3.7m1.227 4.237a5.054 5.054 0 01-.3 2.024 1.008 1.008 0 01-.97.641h-.033a1.018 1.018 0 01-.976-.647 4.975 4.975 0 01-.307-2.018v-.6a4.924 4.924 0 01.307-2.018 1.02 1.02 0 01.976-.636h.033a1.012 1.012 0 01.965.641 4.932 4.932 0 01.307 2.012z"/><path data-name="Path 92" d="M73.179 47.84v-.038a1.79 1.79 0 001.193-1.862v-.157q0-2.263-2.531-2.263h-2.074v7.6h1.149v-3.111h.858a.418.418 0 01.424.279l1.137 2.832h1.238l-1.093-2.765a1.2 1.2 0 00-.3-.524m-1.327-.68h-.936v-2.649h.814a1.721 1.721 0 011.143.307 1.34 1.34 0 01.351 1.054v.111q0 1.182-1.371 1.182"/><path data-name="Rectangle 2" d="M75.643 43.525h1.149v7.604h-1.149z"/><path data-name="Path 93" d="M77.683 44.503h1.561v6.623h1.148v-6.623h1.561v-.981h-4.27z"/><path data-name="Path 94" d="M85.589 46.29a5.4 5.4 0 00-.3 1.015h-.078l-.034-.145c-.022-.1-.06-.242-.111-.413a4.029 4.029 0 00-.167-.457l-1.2-2.765H82.45l2.23 5.129v2.475h1.148v-2.464l2.219-5.14h-1.238z"/><path data-name="Path 95" d="M90.941 51.13h1.145v-3.4h2.074v-.914h-2.074v-2.313h2.42v-.981h-3.568z"/><path data-name="Path 96" d="M97.821 43.391h-.134q-2.4 0-2.4 3.7v.479q0 3.691 2.4 3.691h.134q2.42 0 2.42-3.691v-.479q0-3.7-2.42-3.7m1.227 4.237a5.055 5.055 0 01-.3 2.024 1.008 1.008 0 01-.97.641h-.033a1.018 1.018 0 01-.976-.647 4.975 4.975 0 01-.307-2.018v-.6a4.924 4.924 0 01.307-2.018 1.02 1.02 0 01.976-.636h.033a1.012 1.012 0 01.965.641 4.934 4.934 0 01.307 2.012z"/><path data-name="Path 97" d="M104.946 47.84v-.038a1.79 1.79 0 001.193-1.862v-.157q0-2.263-2.531-2.263h-2.074v7.6h1.149v-3.111h.858a.417.417 0 01.424.279l1.138 2.832h1.238l-1.093-2.765a1.206 1.206 0 00-.3-.524m-1.327-.68h-.936v-2.649h.814a1.721 1.721 0 011.143.307 1.341 1.341 0 01.351 1.054v.111q0 1.182-1.371 1.182"/><path data-name="Path 98" d="M111.625 43.525h-2.208v7.6h2.553a2.124 2.124 0 001.695-.68 2.925 2.925 0 00.591-1.974v-1.918a3.256 3.256 0 00-.7-2.28 2.506 2.506 0 00-1.935-.753m1.483 4.672a2.506 2.506 0 01-.345 1.505 1.217 1.217 0 01-1.026.446h-1.167v-5.641h.881a1.575 1.575 0 011.238.474 2.435 2.435 0 01.423 1.623z"/><path data-name="Path 99" d="M116.71 47.617h2.074v-.87h-2.074v-2.244h2.418v-.981h-3.568v7.6h3.691v-.981h-2.542z"/><path data-name="Path 100" d="M120.21 51.13h1.149v-3.4h2.077v-.914h-2.074v-2.313h2.42v-.981h-3.568z"/><path data-name="Path 101" d="M125.897 47.617h2.074v-.87h-2.074v-2.244h2.42v-.981h-3.568v7.6h3.691v-.981h-2.543z"/><path data-name="Path 102" d="M133.569 48.275l.044.825-.067.011-.033-.078a1.575 1.575 0 00-.072-.212 1.744 1.744 0 00-.095-.2l-2.766-5.1h-1.182v7.6h1.148v-4.75l-.056-.825.067-.011.212.513 2.776 5.073h1.168v-7.6h-1.148z"/><path data-name="Path 103" d="M138.742 46.904l-.825-.29a1.205 1.205 0 01-.608-.407 1.147 1.147 0 01-.173-.663q0-1.171 1.383-1.171a5.047 5.047 0 011.16.134l.122-.078.078-.892-.189-.033a4.727 4.727 0 00-.558-.078q-.357-.034-.669-.034a2.633 2.633 0 00-1.862.585 2.115 2.115 0 00-.625 1.622 1.948 1.948 0 001.483 1.963l.836.29q.97.323.97 1.126 0 1.316-1.461 1.316a5.1 5.1 0 01-1.449-.2l-.156.067.034.914a6.8 6.8 0 001.65.19q2.531 0 2.531-2.342a2.08 2.08 0 00-1.673-2.018"/><path data-name="Path 104" d="M142.823 47.617h2.074v-.87h-2.074v-2.244h2.42v-.981h-3.568v7.6h3.691v-.981h-2.543z"/><path data-name="Path 105" d="M150.539 43.525h-2.208v7.6h2.554a2.124 2.124 0 001.7-.68 2.925 2.925 0 00.591-1.974v-1.918a3.256 3.256 0 00-.7-2.28 2.507 2.507 0 00-1.935-.753m1.483 4.672a2.506 2.506 0 01-.345 1.505 1.217 1.217 0 01-1.026.446h-1.171v-5.641h.881a1.575 1.575 0 011.238.474 2.435 2.435 0 01.424 1.623z"/><path data-name="Path 106" d="M155.624 47.617h2.074v-.87h-2.074v-2.244h2.419v-.981h-3.568v7.6h3.691v-.981h-2.542z"/><path data-name="Path 107" d="M161.601 48.822a10.443 10.443 0 00-.189 1.037h-.123l-.189-1.037-1.372-5.3h-1.192l1.974 7.6h1.684l1.974-7.6h-1.193z"/><path data-name="Path 108" d="M166.194 47.617h2.074v-.87h-2.074v-2.244h2.419v-.981h-3.568v7.6h3.691v-.981h-2.542z"/><path data-name="Path 109" d="M170.844 43.525h-1.149v7.6h3.457v-.981h-2.308z"/><path data-name="Path 110" d="M176.374 43.391h-.134q-2.4 0-2.4 3.7v.479q0 3.691 2.4 3.691h.134q2.419 0 2.419-3.691v-.479q0-3.7-2.419-3.7m1.226 4.237a5.051 5.051 0 01-.3 2.024 1.008 1.008 0 01-.97.641h-.034a1.018 1.018 0 01-.975-.647 4.971 4.971 0 01-.307-2.018v-.6a4.92 4.92 0 01.307-2.018 1.019 1.019 0 01.975-.636h.034a1.012 1.012 0 01.964.641 4.932 4.932 0 01.307 2.012z"/><path data-name="Path 111" d="M182.161 43.525h-2.074v7.6h1.149v-2.587h1.16a2.185 2.185 0 001.561-.535 2.1 2.1 0 00.569-1.605v-.424q0-2.453-2.364-2.453m1.215 2.877a1.114 1.114 0 01-1.249 1.271h-.892v-3.167h.78a1.316 1.316 0 011.032.368 1.689 1.689 0 01.329 1.148z"/><path data-name="Path 112" d="M189.231 47.963a8.614 8.614 0 00-.268.837h-.044l-.268-.837-1.639-4.438h-1.416v7.6h1.148v-4.2q0-.4-.044-1.36l.089-.011.245.848 1.651 4.493h.5l1.651-4.493q.066-.179.245-.848l.078.011-.033 1.36v4.2h1.149v-7.6h-1.416z"/><path data-name="Path 113" d="M194.917 47.617h2.074v-.87h-2.074v-2.244h2.42v-.981h-3.564v7.6h3.69v-.981h-2.542z"/><path data-name="Path 114" d="M202.584 48.275l.044.825-.067.011-.033-.078a1.514 1.514 0 00-.073-.212 1.748 1.748 0 00-.094-.2l-2.766-5.1h-1.182v7.6h1.149v-4.75l-.056-.825.067-.011.212.513 2.776 5.073h1.171v-7.6h-1.148z"/><path data-name="Path 115" d="M204.629 44.503h1.561v6.623h1.149v-6.623h1.561v-.981h-4.27z"/></g><g data-name="Group 1" fill="#295a28"><path data-name="Path 116" d="M234.236 16.388c.106 1.561.558 3.023.168 4.626-.375 1.545.286 3.17.027 4.863-.281 1.836.334 3.783-.02 5.708a5.23 5.23 0 00.187 2.07 2.3 2.3 0 01-.844 2.581c-.028.022 0 .111 0 .21h4.684l.253-.3a4.712 4.712 0 01-.936-.616 1.324 1.324 0 01-.332-.82c-.03-1.639.506-3.2.075-4.941-.389-1.567.579-3.284-.03-5.009-.228-.645.127-1.491.2-2.247.058-.629.326-1.376.087-1.871-.726-1.5.176-2.846.121-4.273a18.546 18.546 0 012.886 11.067 16.856 16.856 0 00.663-11.646 22.686 22.686 0 014.908 9.237 15.919 15.919 0 00-3.035-12 19.327 19.327 0 016.174 7.051 13.9 13.9 0 00-5.9-10.151 14.518 14.518 0 017.119 5.023 11.647 11.647 0 00-8.235-8.122c1.926-.411 3.974-.03 7.164 1.25-2.542-3.171-5.893-3.882-9.621-3.643l.019-.369 4.353-.866a7.322 7.322 0 00-7.012-.08L236.057 0l-1.3 3.094c-3.287-1.148-5.661-1.045-7 .286a7.693 7.693 0 014.312.99c-3.725-.219-7.014.589-9.625 3.753 3.106-1.329 5.828-1.8 7.311-1.234a11.434 11.434 0 00-8.327 8.091 14.6 14.6 0 017.084-5.066c-.674.7-1.443 1.29-2.1 1.989a15.419 15.419 0 00-1.875 2.378 13.3 13.3 0 00-1.233 2.657 28.8 28.8 0 00-.688 2.827 21.448 21.448 0 016.187-6.709 16.305 16.305 0 00-3.086 12.009c.679-1.7 1.217-3.386 2.007-4.942s1.821-2.964 2.748-4.438l.333.144a16.046 16.046 0 00.558 11.6 18.369 18.369 0 012.872-11.036m24.836 16.728c-.2-.067-.407-.143-.614-.2a16.819 16.819 0 00-12.08 1.25 39.966 39.966 0 00-9.42 6.667c-.651.587-1.021.67-1.769.048a81.279 81.279 0 00-6.761-5.2 17.9 17.9 0 00-11.452-3.315c-1.3.1-2.576.4-3.863.611l.014.276c8.392.437 14.973 4.683 21.215 9.924-1.134 1.027-2.162 1.961-3.195 2.889-.161.144-.345.262-.543.41a3.986 3.986 0 01-1.532-3.171 1.916 1.916 0 00-.762.769c-.5 1.375.4 2.389 1.107 3.546-.825.567-1.565 1.164-2.385 1.619-1.107.615-1.754.336-2.17-.863-.229-.659-.634-1.058-1.322-.96a1.317 1.317 0 00-1.154 1.312 2.678 2.678 0 001.814 2.9 4.321 4.321 0 004.226-.627c.805-.593 1.578-1.23 2.352-1.836 1.1 1.038 1.191 1.25 1.42 3.124 1.4-.514 1.356-1.736-.206-4.2l4.069-3.5 4.07 3.515c-1.587 2.354-1.625 3.76-.121 4.19a3.29 3.29 0 011.321-3.137c.776.611 1.539 1.217 2.309 1.816a4.5 4.5 0 003.4.889 2.868 2.868 0 002.695-2.7c.029-.969-.375-1.645-1.111-1.743-.868-.116-1.242.434-1.447 1.18a1.086 1.086 0 01-1.606.827 30.63 30.63 0 01-2.919-1.8c1.635-2.353 1.7-3.758.261-4.256a3.467 3.467 0 01-1.459 3.134l-3.678-3.328c6.277-5.272 12.873-9.514 21.3-10.061"/><path data-name="Path 117" d="M234.235 16.388a18.369 18.369 0 00-2.872 11.036 16.046 16.046 0 01-.558-11.6l-.333-.144c-.926 1.474-1.963 2.892-2.748 4.438s-1.328 3.239-2.007 4.942a16.3 16.3 0 013.086-12.009 21.448 21.448 0 00-6.187 6.709 28.853 28.853 0 01.688-2.827 13.324 13.324 0 011.233-2.657 15.435 15.435 0 011.875-2.378c.655-.7 1.424-1.292 2.1-1.989a14.6 14.6 0 00-7.084 5.066 11.434 11.434 0 018.327-8.091c-1.483-.57-4.2-.095-7.311 1.234 2.611-3.164 5.9-3.972 9.626-3.753a7.693 7.693 0 00-4.312-.99c1.337-1.331 3.712-1.433 7-.286L236.056 0l1.3 3.118a7.322 7.322 0 017.012.08l-4.362.869-.019.369c3.728-.239 7.08.472 9.621 3.643-3.19-1.28-5.239-1.661-7.165-1.25a11.646 11.646 0 018.235 8.122 14.517 14.517 0 00-7.119-5.023 13.9 13.9 0 015.9 10.151 19.326 19.326 0 00-6.174-7.051 15.919 15.919 0 013.035 12 22.689 22.689 0 00-4.908-9.237 16.858 16.858 0 01-.663 11.646 18.546 18.546 0 00-2.886-11.067c.055 1.427-.847 2.768-.121 4.273.239.495-.029 1.241-.087 1.871-.07.756-.424 1.6-.2 2.247.61 1.725-.358 3.442.03 5.009.431 1.736-.105 3.3-.075 4.941a1.325 1.325 0 00.332.82 4.706 4.706 0 00.936.615l-.253.3h-4.678c0-.1-.024-.188 0-.21a2.3 2.3 0 00.844-2.582 5.228 5.228 0 01-.187-2.07c.353-1.926-.262-3.872.019-5.708.259-1.693-.4-3.318-.027-4.863.389-1.6-.062-3.066-.168-4.626"/><path data-name="Path 118" d="M259.071 33.121c-8.424.547-15.019 4.789-21.3 10.061l3.678 3.328a3.467 3.467 0 001.459-3.134c1.435.5 1.374 1.9-.261 4.256a30.631 30.631 0 002.919 1.8 1.086 1.086 0 001.606-.827c.2-.746.579-1.3 1.447-1.18.737.1 1.14.775 1.111 1.743a2.868 2.868 0 01-2.695 2.7 4.5 4.5 0 01-3.4-.889c-.77-.6-1.533-1.205-2.309-1.816a3.29 3.29 0 00-1.321 3.137c-1.5-.43-1.466-1.836.121-4.19l-4.07-3.515-4.069 3.5c1.562 2.462 1.607 3.684.206 4.2-.228-1.874-.322-2.086-1.42-3.124-.774.607-1.547 1.244-2.352 1.836a4.321 4.321 0 01-4.226.627 2.678 2.678 0 01-1.814-2.9 1.317 1.317 0 011.154-1.312c.688-.1 1.093.3 1.322.96.416 1.2 1.063 1.478 2.17.863.82-.455 1.56-1.052 2.385-1.619-.71-1.157-1.6-2.171-1.107-3.546a1.916 1.916 0 01.762-.769 3.986 3.986 0 001.532 3.166c.2-.148.382-.266.543-.41 1.033-.928 2.061-1.863 3.195-2.889-6.242-5.241-12.823-9.487-21.215-9.924l-.014-.276c1.287-.209 2.567-.513 3.863-.611a17.9 17.9 0 0111.452 3.315 81.277 81.277 0 016.761 5.2c.747.622 1.118.54 1.769-.048a39.966 39.966 0 019.42-6.667 16.819 16.819 0 0112.08-1.25c.207.057.41.133.614.2"/></g></svg>